<svg xmlns="http://www.w3.org/2000/svg" viewBox="0 0 32 32" width="32" height="32">
  <rect width="32" height="32" rx="4" fill="#0C1322"/>
  <!-- D path - JetBrains Mono Bold style -->
  <path d="M5.5 8h4.2c1.2 0 2.2 0.2 3 0.7 0.8 0.5 1.4 1.1 1.8 2 0.4 0.9 0.6 1.8 0.6 3s-0.2 2.2-0.6 3c-0.4 0.9-1 1.5-1.8 2-0.8 0.5-1.8 0.7-3 0.7H5.5V8zm4 11.2c1.2 0 2.1-0.4 2.7-1.1 0.6-0.7 0.9-1.7 0.9-3s-0.3-2.2-0.9-3C11.6 11.4 10.7 11 9.5 11H8.2v8.2h1.3z" fill="#3B82F6"/>
  <!-- R path - JetBrains Mono Bold style -->
  <path d="M17.5 8h4.5c1.4 0 2.5 0.3 3.2 1 0.7 0.7 1.1 1.6 1.1 2.7 0 0.8-0.2 1.5-0.6 2.1-0.4 0.6-0.9 1-1.6 1.2l2.6 4.5h-3l-2.2-4.1h-1.3v4.1h-2.7V8zm4.2 5.4c0.6 0 1-0.1 1.3-0.4 0.3-0.3 0.5-0.7 0.5-1.2s-0.2-0.9-0.5-1.2c-0.3-0.3-0.7-0.4-1.3-0.4h-1.5v3.2h1.5z" fill="#3B82F6"/>
</svg>
